<svg
  fill="none"
  xmlns="http://www.w3.org/2000/svg"
  width="747"
  height="747"
  viewBox="0 0 747 747"
>
  <path
    d="M424.531 747l-23.887-268.182 114.004 244.295 90.118-52.116-155.263-219.323 220.408 154.178 52.117-90.118-243.21-112.919L747 426.702V322.469l-268.182 23.887 244.295-114.004-52.116-90.118-219.323 155.263L605.852 77.089l-90.118-52.117-112.919 243.21L426.702 0H322.469l23.887 268.182L232.352 23.887l-90.118 52.116 155.263 219.323L77.089 141.148l-52.117 90.118 243.21 112.919L0 320.298v104.233l268.182-23.887L23.887 514.648l52.116 90.118 219.323-155.263-154.178 220.408 90.118 52.117 112.919-243.21L320.298 747h104.233z"
    fill="#D1007E"
  />
</svg>
